<mxfile host="app.diagrams.net" agent="Mozilla/5.0 (Windows NT 10.0; Win64; x64) AppleWebKit/537.36 (KHTML, like Gecko) Chrome/136.0.0.0 Safari/537.36" version="24.8.2">
  <diagram name="Page-1" id="goB-dwoIic0i5rNyGTvA">
    <mxGraphModel dx="1909" dy="949" grid="1" gridSize="10" guides="1" tooltips="1" connect="1" arrows="1" fold="1" page="1" pageScale="1" pageWidth="827" pageHeight="1169" math="0" shadow="0">
      <root>
        <mxCell id="0" />
        <mxCell id="1" parent="0" />
        <mxCell id="uHSjfJx8BVrwy3Qoeiem-1" value="add_favorite_location" style="ellipse;whiteSpace=wrap;html=1;" vertex="1" parent="1">
          <mxGeometry x="174" y="340" width="120" height="80" as="geometry" />
        </mxCell>
        <mxCell id="uHSjfJx8BVrwy3Qoeiem-3" value="find_activities_for_a_future_day" style="ellipse;whiteSpace=wrap;html=1;" vertex="1" parent="1">
          <mxGeometry x="174" y="660" width="120" height="80" as="geometry" />
        </mxCell>
        <mxCell id="uHSjfJx8BVrwy3Qoeiem-4" value="refresh_activity" style="ellipse;whiteSpace=wrap;html=1;" vertex="1" parent="1">
          <mxGeometry x="170" y="570" width="120" height="80" as="geometry" />
        </mxCell>
        <mxCell id="uHSjfJx8BVrwy3Qoeiem-5" value="view_activity_in_map" style="ellipse;whiteSpace=wrap;html=1;" vertex="1" parent="1">
          <mxGeometry x="174" y="460" width="120" height="80" as="geometry" />
        </mxCell>
        <mxCell id="uHSjfJx8BVrwy3Qoeiem-6" value="edit_preferences" style="ellipse;whiteSpace=wrap;html=1;" vertex="1" parent="1">
          <mxGeometry x="174" y="220" width="120" height="80" as="geometry" />
        </mxCell>
        <mxCell id="uHSjfJx8BVrwy3Qoeiem-7" value="User" style="shape=umlActor;verticalLabelPosition=bottom;verticalAlign=top;html=1;outlineConnect=0;" vertex="1" parent="1">
          <mxGeometry x="24" y="480" width="30" height="60" as="geometry" />
        </mxCell>
        <mxCell id="uHSjfJx8BVrwy3Qoeiem-9" value="Google" style="shape=umlActor;verticalLabelPosition=bottom;verticalAlign=top;html=1;outlineConnect=0;" vertex="1" parent="1">
          <mxGeometry x="774" y="610" width="30" height="60" as="geometry" />
        </mxCell>
        <mxCell id="uHSjfJx8BVrwy3Qoeiem-10" value="MET" style="shape=umlActor;verticalLabelPosition=bottom;verticalAlign=top;html=1;outlineConnect=0;" vertex="1" parent="1">
          <mxGeometry x="774" y="330" width="30" height="60" as="geometry" />
        </mxCell>
        <mxCell id="uHSjfJx8BVrwy3Qoeiem-15" value="OpenAi" style="shape=umlActor;verticalLabelPosition=bottom;verticalAlign=top;html=1;outlineConnect=0;" vertex="1" parent="1">
          <mxGeometry x="774" y="520" width="30" height="60" as="geometry" />
        </mxCell>
        <mxCell id="uHSjfJx8BVrwy3Qoeiem-16" value="Strava" style="shape=umlActor;verticalLabelPosition=bottom;verticalAlign=top;html=1;outlineConnect=0;" vertex="1" parent="1">
          <mxGeometry x="774" y="430" width="30" height="60" as="geometry" />
        </mxCell>
        <mxCell id="uHSjfJx8BVrwy3Qoeiem-19" value="Fetch data from External API" style="ellipse;whiteSpace=wrap;html=1;" vertex="1" parent="1">
          <mxGeometry x="544" y="460" width="120" height="80" as="geometry" />
        </mxCell>
        <mxCell id="uHSjfJx8BVrwy3Qoeiem-24" value="" style="endArrow=none;html=1;rounded=0;exitX=0.5;exitY=0;exitDx=0;exitDy=0;" edge="1" parent="1" source="uHSjfJx8BVrwy3Qoeiem-19" target="uHSjfJx8BVrwy3Qoeiem-10">
          <mxGeometry width="50" height="50" relative="1" as="geometry">
            <mxPoint x="304" y="570" as="sourcePoint" />
            <mxPoint x="354" y="520" as="targetPoint" />
          </mxGeometry>
        </mxCell>
        <mxCell id="uHSjfJx8BVrwy3Qoeiem-25" value="" style="endArrow=none;html=1;rounded=0;" edge="1" parent="1" target="uHSjfJx8BVrwy3Qoeiem-16">
          <mxGeometry width="50" height="50" relative="1" as="geometry">
            <mxPoint x="644" y="470" as="sourcePoint" />
            <mxPoint x="774" y="380" as="targetPoint" />
          </mxGeometry>
        </mxCell>
        <mxCell id="uHSjfJx8BVrwy3Qoeiem-26" value="" style="endArrow=none;html=1;rounded=0;exitX=1;exitY=1;exitDx=0;exitDy=0;" edge="1" parent="1" source="uHSjfJx8BVrwy3Qoeiem-19" target="uHSjfJx8BVrwy3Qoeiem-15">
          <mxGeometry width="50" height="50" relative="1" as="geometry">
            <mxPoint x="686" y="482" as="sourcePoint" />
            <mxPoint x="774" y="472" as="targetPoint" />
          </mxGeometry>
        </mxCell>
        <mxCell id="uHSjfJx8BVrwy3Qoeiem-27" value="" style="endArrow=none;html=1;rounded=0;exitX=0.5;exitY=1;exitDx=0;exitDy=0;entryX=0;entryY=0.3333333333333333;entryDx=0;entryDy=0;entryPerimeter=0;" edge="1" parent="1" source="uHSjfJx8BVrwy3Qoeiem-19" target="uHSjfJx8BVrwy3Qoeiem-9">
          <mxGeometry width="50" height="50" relative="1" as="geometry">
            <mxPoint x="704" y="510" as="sourcePoint" />
            <mxPoint x="754" y="630" as="targetPoint" />
          </mxGeometry>
        </mxCell>
        <mxCell id="uHSjfJx8BVrwy3Qoeiem-30" value="&amp;lt;&amp;lt;include&amp;gt;&amp;gt;" style="endArrow=classic;html=1;rounded=0;entryX=0;entryY=0;entryDx=0;entryDy=0;exitX=0.929;exitY=0.226;exitDx=0;exitDy=0;jumpStyle=gap;edgeStyle=orthogonalEdgeStyle;dashed=1;exitPerimeter=0;" edge="1" parent="1" source="uHSjfJx8BVrwy3Qoeiem-5" target="uHSjfJx8BVrwy3Qoeiem-19">
          <mxGeometry width="50" height="50" relative="1" as="geometry">
            <mxPoint x="474" y="350" as="sourcePoint" />
            <mxPoint x="602" y="482" as="targetPoint" />
            <Array as="points">
              <mxPoint x="286" y="440" />
              <mxPoint x="562" y="440" />
            </Array>
          </mxGeometry>
        </mxCell>
        <mxCell id="uHSjfJx8BVrwy3Qoeiem-32" value="" style="endArrow=classic;html=1;rounded=0;entryX=0;entryY=0.5;entryDx=0;entryDy=0;exitX=1;exitY=0.5;exitDx=0;exitDy=0;jumpStyle=gap;edgeStyle=orthogonalEdgeStyle;dashed=1;" edge="1" parent="1" source="uHSjfJx8BVrwy3Qoeiem-66" target="uHSjfJx8BVrwy3Qoeiem-19">
          <mxGeometry width="50" height="50" relative="1" as="geometry">
            <mxPoint x="484" y="490" as="sourcePoint" />
            <mxPoint x="584" y="510" as="targetPoint" />
          </mxGeometry>
        </mxCell>
        <mxCell id="uHSjfJx8BVrwy3Qoeiem-35" value="&amp;lt;&amp;lt;include&amp;gt;&amp;gt;" style="edgeLabel;html=1;align=center;verticalAlign=middle;resizable=0;points=[];" vertex="1" connectable="0" parent="uHSjfJx8BVrwy3Qoeiem-32">
          <mxGeometry x="0.259" relative="1" as="geometry">
            <mxPoint as="offset" />
          </mxGeometry>
        </mxCell>
        <mxCell id="uHSjfJx8BVrwy3Qoeiem-33" value="" style="endArrow=classic;html=1;rounded=0;exitX=1;exitY=0.5;exitDx=0;exitDy=0;jumpStyle=gap;edgeStyle=orthogonalEdgeStyle;dashed=1;" edge="1" parent="1" source="uHSjfJx8BVrwy3Qoeiem-3" target="uHSjfJx8BVrwy3Qoeiem-19">
          <mxGeometry width="50" height="50" relative="1" as="geometry">
            <mxPoint x="494" y="590" as="sourcePoint" />
            <mxPoint x="602" y="538" as="targetPoint" />
          </mxGeometry>
        </mxCell>
        <mxCell id="uHSjfJx8BVrwy3Qoeiem-36" value="&amp;lt;&amp;lt;include&amp;gt;&amp;gt;" style="edgeLabel;html=1;align=center;verticalAlign=middle;resizable=0;points=[];" vertex="1" connectable="0" parent="uHSjfJx8BVrwy3Qoeiem-33">
          <mxGeometry x="0.213" y="1" relative="1" as="geometry">
            <mxPoint as="offset" />
          </mxGeometry>
        </mxCell>
        <mxCell id="uHSjfJx8BVrwy3Qoeiem-37" value="Fetch data from external file" style="ellipse;whiteSpace=wrap;html=1;" vertex="1" parent="1">
          <mxGeometry x="544" y="160" width="120" height="80" as="geometry" />
        </mxCell>
        <mxCell id="uHSjfJx8BVrwy3Qoeiem-38" value="" style="endArrow=classic;html=1;rounded=0;entryX=0;entryY=0.5;entryDx=0;entryDy=0;exitX=0.907;exitY=0.226;exitDx=0;exitDy=0;jumpStyle=gap;edgeStyle=orthogonalEdgeStyle;dashed=1;exitPerimeter=0;" edge="1" parent="1" source="uHSjfJx8BVrwy3Qoeiem-1" target="uHSjfJx8BVrwy3Qoeiem-37">
          <mxGeometry width="50" height="50" relative="1" as="geometry">
            <mxPoint x="274" y="380" as="sourcePoint" />
            <mxPoint x="594" y="300" as="targetPoint" />
            <Array as="points">
              <mxPoint x="283" y="360" />
              <mxPoint x="419" y="360" />
              <mxPoint x="419" y="200" />
            </Array>
          </mxGeometry>
        </mxCell>
        <mxCell id="uHSjfJx8BVrwy3Qoeiem-39" value="&amp;lt;&amp;lt;include&amp;gt;&amp;gt;" style="edgeLabel;html=1;align=center;verticalAlign=middle;resizable=0;points=[];" vertex="1" connectable="0" parent="uHSjfJx8BVrwy3Qoeiem-38">
          <mxGeometry x="-0.0825" y="3" relative="1" as="geometry">
            <mxPoint as="offset" />
          </mxGeometry>
        </mxCell>
        <mxCell id="uHSjfJx8BVrwy3Qoeiem-42" value="pan_around_map" style="ellipse;whiteSpace=wrap;html=1;" vertex="1" parent="1">
          <mxGeometry x="380" y="710" width="120" height="80" as="geometry" />
        </mxCell>
        <mxCell id="uHSjfJx8BVrwy3Qoeiem-44" value="" style="endArrow=classic;html=1;rounded=0;exitX=0;exitY=0.5;exitDx=0;exitDy=0;entryX=1;entryY=1;entryDx=0;entryDy=0;jumpStyle=gap;edgeStyle=orthogonalEdgeStyle;dashed=1;" edge="1" parent="1" source="uHSjfJx8BVrwy3Qoeiem-42" target="uHSjfJx8BVrwy3Qoeiem-5">
          <mxGeometry width="50" height="50" relative="1" as="geometry">
            <mxPoint x="334" y="400" as="sourcePoint" />
            <mxPoint x="414" y="540" as="targetPoint" />
            <Array as="points">
              <mxPoint x="320" y="750" />
              <mxPoint x="320" y="528" />
              <mxPoint x="294" y="528" />
            </Array>
          </mxGeometry>
        </mxCell>
        <mxCell id="uHSjfJx8BVrwy3Qoeiem-45" value="&amp;lt;&amp;lt;extend&amp;gt;&amp;gt;" style="edgeLabel;html=1;align=center;verticalAlign=middle;resizable=0;points=[];" vertex="1" connectable="0" parent="uHSjfJx8BVrwy3Qoeiem-44">
          <mxGeometry x="-0.0825" y="3" relative="1" as="geometry">
            <mxPoint as="offset" />
          </mxGeometry>
        </mxCell>
        <mxCell id="uHSjfJx8BVrwy3Qoeiem-47" value="" style="endArrow=none;html=1;rounded=0;entryX=0;entryY=0.5;entryDx=0;entryDy=0;exitX=1;exitY=0.3333333333333333;exitDx=0;exitDy=0;exitPerimeter=0;" edge="1" parent="1" source="uHSjfJx8BVrwy3Qoeiem-7" target="uHSjfJx8BVrwy3Qoeiem-5">
          <mxGeometry width="50" height="50" relative="1" as="geometry">
            <mxPoint x="54" y="510" as="sourcePoint" />
            <mxPoint x="354" y="490" as="targetPoint" />
          </mxGeometry>
        </mxCell>
        <mxCell id="uHSjfJx8BVrwy3Qoeiem-49" value="" style="endArrow=none;html=1;rounded=0;exitX=0;exitY=0.5;exitDx=0;exitDy=0;entryX=1;entryY=0.3333333333333333;entryDx=0;entryDy=0;entryPerimeter=0;" edge="1" parent="1" source="uHSjfJx8BVrwy3Qoeiem-6" target="uHSjfJx8BVrwy3Qoeiem-7">
          <mxGeometry width="50" height="50" relative="1" as="geometry">
            <mxPoint x="214" y="400" as="sourcePoint" />
            <mxPoint x="54" y="500" as="targetPoint" />
          </mxGeometry>
        </mxCell>
        <mxCell id="uHSjfJx8BVrwy3Qoeiem-50" value="" style="endArrow=none;html=1;rounded=0;exitX=0;exitY=0.5;exitDx=0;exitDy=0;entryX=1;entryY=0.3333333333333333;entryDx=0;entryDy=0;entryPerimeter=0;" edge="1" parent="1" source="uHSjfJx8BVrwy3Qoeiem-4" target="uHSjfJx8BVrwy3Qoeiem-7">
          <mxGeometry width="50" height="50" relative="1" as="geometry">
            <mxPoint x="224" y="410" as="sourcePoint" />
            <mxPoint x="64" y="500" as="targetPoint" />
          </mxGeometry>
        </mxCell>
        <mxCell id="uHSjfJx8BVrwy3Qoeiem-51" value="" style="endArrow=none;html=1;rounded=0;exitX=0;exitY=0.5;exitDx=0;exitDy=0;entryX=1;entryY=0.3333333333333333;entryDx=0;entryDy=0;entryPerimeter=0;" edge="1" parent="1" source="uHSjfJx8BVrwy3Qoeiem-3" target="uHSjfJx8BVrwy3Qoeiem-7">
          <mxGeometry width="50" height="50" relative="1" as="geometry">
            <mxPoint x="234" y="420" as="sourcePoint" />
            <mxPoint x="64" y="500" as="targetPoint" />
          </mxGeometry>
        </mxCell>
        <mxCell id="uHSjfJx8BVrwy3Qoeiem-52" value="delete_favorite_location" style="ellipse;whiteSpace=wrap;html=1;" vertex="1" parent="1">
          <mxGeometry x="484" y="340" width="120" height="80" as="geometry" />
        </mxCell>
        <mxCell id="uHSjfJx8BVrwy3Qoeiem-53" value="" style="endArrow=classic;html=1;rounded=0;exitX=0;exitY=0.5;exitDx=0;exitDy=0;entryX=1;entryY=0.5;entryDx=0;entryDy=0;jumpStyle=gap;edgeStyle=elbowEdgeStyle;elbow=vertical;dashed=1;" edge="1" parent="1" source="uHSjfJx8BVrwy3Qoeiem-52" target="uHSjfJx8BVrwy3Qoeiem-1">
          <mxGeometry width="50" height="50" relative="1" as="geometry">
            <mxPoint x="374" y="480" as="sourcePoint" />
            <mxPoint x="294" y="510" as="targetPoint" />
          </mxGeometry>
        </mxCell>
        <mxCell id="uHSjfJx8BVrwy3Qoeiem-54" value="&amp;lt;&amp;lt;extend&amp;gt;&amp;gt;" style="edgeLabel;html=1;align=center;verticalAlign=middle;resizable=0;points=[];" vertex="1" connectable="0" parent="uHSjfJx8BVrwy3Qoeiem-53">
          <mxGeometry x="-0.0825" y="3" relative="1" as="geometry">
            <mxPoint x="23" y="-3" as="offset" />
          </mxGeometry>
        </mxCell>
        <mxCell id="uHSjfJx8BVrwy3Qoeiem-58" value="" style="endArrow=none;html=1;rounded=0;exitX=0;exitY=0.5;exitDx=0;exitDy=0;entryX=1;entryY=0.3333333333333333;entryDx=0;entryDy=0;entryPerimeter=0;" edge="1" parent="1" source="uHSjfJx8BVrwy3Qoeiem-1" target="uHSjfJx8BVrwy3Qoeiem-7">
          <mxGeometry width="50" height="50" relative="1" as="geometry">
            <mxPoint x="174" y="390" as="sourcePoint" />
            <mxPoint x="64" y="510" as="targetPoint" />
          </mxGeometry>
        </mxCell>
        <mxCell id="uHSjfJx8BVrwy3Qoeiem-59" value="" style="endArrow=classic;html=1;rounded=0;entryX=0;entryY=0.5;entryDx=0;entryDy=0;exitX=1;exitY=0.5;exitDx=0;exitDy=0;jumpStyle=gap;edgeStyle=orthogonalEdgeStyle;dashed=1;" edge="1" parent="1" source="uHSjfJx8BVrwy3Qoeiem-1" target="uHSjfJx8BVrwy3Qoeiem-57">
          <mxGeometry width="50" height="50" relative="1" as="geometry">
            <mxPoint x="464" y="370" as="sourcePoint" />
            <mxPoint x="584" y="280" as="targetPoint" />
          </mxGeometry>
        </mxCell>
        <mxCell id="uHSjfJx8BVrwy3Qoeiem-60" value="&amp;lt;&amp;lt;include&amp;gt;&amp;gt;" style="edgeLabel;html=1;align=center;verticalAlign=middle;resizable=0;points=[];" vertex="1" connectable="0" parent="uHSjfJx8BVrwy3Qoeiem-59">
          <mxGeometry x="-0.0825" y="3" relative="1" as="geometry">
            <mxPoint as="offset" />
          </mxGeometry>
        </mxCell>
        <mxCell id="uHSjfJx8BVrwy3Qoeiem-62" value="" style="endArrow=classic;html=1;rounded=0;exitX=0;exitY=0.5;exitDx=0;exitDy=0;entryX=1;entryY=0.5;entryDx=0;entryDy=0;jumpStyle=gap;edgeStyle=elbowEdgeStyle;elbow=vertical;dashed=1;" edge="1" parent="1" source="uHSjfJx8BVrwy3Qoeiem-61" target="uHSjfJx8BVrwy3Qoeiem-5">
          <mxGeometry width="50" height="50" relative="1" as="geometry">
            <mxPoint x="364" y="570" as="sourcePoint" />
            <mxPoint x="294" y="510" as="targetPoint" />
          </mxGeometry>
        </mxCell>
        <mxCell id="uHSjfJx8BVrwy3Qoeiem-63" value="&amp;lt;&amp;lt;extend&amp;gt;&amp;gt;" style="edgeLabel;html=1;align=center;verticalAlign=middle;resizable=0;points=[];" vertex="1" connectable="0" parent="uHSjfJx8BVrwy3Qoeiem-62">
          <mxGeometry x="-0.0825" y="3" relative="1" as="geometry">
            <mxPoint as="offset" />
          </mxGeometry>
        </mxCell>
        <mxCell id="uHSjfJx8BVrwy3Qoeiem-61" value="highlight_activity_in_map" style="ellipse;whiteSpace=wrap;html=1;" vertex="1" parent="1">
          <mxGeometry x="380" y="460" width="120" height="80" as="geometry" />
        </mxCell>
        <mxCell id="uHSjfJx8BVrwy3Qoeiem-67" value="" style="endArrow=classic;html=1;rounded=0;exitX=0;exitY=0.5;exitDx=0;exitDy=0;entryX=1;entryY=0.5;entryDx=0;entryDy=0;jumpStyle=gap;edgeStyle=orthogonalEdgeStyle;dashed=1;" edge="1" parent="1" source="uHSjfJx8BVrwy3Qoeiem-66" target="uHSjfJx8BVrwy3Qoeiem-1">
          <mxGeometry width="50" height="50" relative="1" as="geometry">
            <mxPoint x="594" y="410" as="sourcePoint" />
            <mxPoint x="304" y="400" as="targetPoint" />
            <Array as="points">
              <mxPoint x="380" y="570" />
              <mxPoint x="340" y="570" />
              <mxPoint x="340" y="400" />
              <mxPoint x="294" y="400" />
            </Array>
          </mxGeometry>
        </mxCell>
        <mxCell id="uHSjfJx8BVrwy3Qoeiem-68" value="&amp;lt;&amp;lt;extend&amp;gt;&amp;gt;" style="edgeLabel;html=1;align=center;verticalAlign=middle;resizable=0;points=[];" vertex="1" connectable="0" parent="uHSjfJx8BVrwy3Qoeiem-67">
          <mxGeometry x="-0.0825" y="3" relative="1" as="geometry">
            <mxPoint x="3" y="-95" as="offset" />
          </mxGeometry>
        </mxCell>
        <mxCell id="uHSjfJx8BVrwy3Qoeiem-69" value="" style="endArrow=classic;html=1;rounded=0;exitX=1;exitY=0.5;exitDx=0;exitDy=0;entryX=0;entryY=0.5;entryDx=0;entryDy=0;dashed=1;edgeStyle=elbowEdgeStyle;elbow=vertical;" edge="1" parent="1" source="uHSjfJx8BVrwy3Qoeiem-3" target="uHSjfJx8BVrwy3Qoeiem-66">
          <mxGeometry width="50" height="50" relative="1" as="geometry">
            <mxPoint x="484" y="360" as="sourcePoint" />
            <mxPoint x="304" y="400" as="targetPoint" />
            <Array as="points">
              <mxPoint x="340" y="680" />
            </Array>
          </mxGeometry>
        </mxCell>
        <mxCell id="uHSjfJx8BVrwy3Qoeiem-70" value="&amp;lt;&amp;lt;extend&amp;gt;&amp;gt;" style="edgeLabel;html=1;align=center;verticalAlign=middle;resizable=0;points=[];" vertex="1" connectable="0" parent="uHSjfJx8BVrwy3Qoeiem-69">
          <mxGeometry x="-0.0825" y="3" relative="1" as="geometry">
            <mxPoint as="offset" />
          </mxGeometry>
        </mxCell>
        <mxCell id="uHSjfJx8BVrwy3Qoeiem-72" value="" style="endArrow=classic;html=1;rounded=0;exitX=1;exitY=0.5;exitDx=0;exitDy=0;jumpStyle=gap;edgeStyle=orthogonalEdgeStyle;dashed=1;entryX=0;entryY=0.5;entryDx=0;entryDy=0;" edge="1" parent="1" source="uHSjfJx8BVrwy3Qoeiem-6" target="uHSjfJx8BVrwy3Qoeiem-37">
          <mxGeometry width="50" height="50" relative="1" as="geometry">
            <mxPoint x="294" y="260" as="sourcePoint" />
            <mxPoint x="544" y="260" as="targetPoint" />
            <Array as="points">
              <mxPoint x="340" y="260" />
              <mxPoint x="340" y="230" />
              <mxPoint x="544" y="230" />
            </Array>
          </mxGeometry>
        </mxCell>
        <mxCell id="uHSjfJx8BVrwy3Qoeiem-73" value="&amp;lt;&amp;lt;include&amp;gt;&amp;gt;" style="edgeLabel;html=1;align=center;verticalAlign=middle;resizable=0;points=[];" vertex="1" connectable="0" parent="uHSjfJx8BVrwy3Qoeiem-72">
          <mxGeometry x="-0.0825" y="3" relative="1" as="geometry">
            <mxPoint as="offset" />
          </mxGeometry>
        </mxCell>
        <mxCell id="uHSjfJx8BVrwy3Qoeiem-57" value="search_for_locations" style="ellipse;whiteSpace=wrap;html=1;" vertex="1" parent="1">
          <mxGeometry x="460" y="240" width="120" height="80" as="geometry" />
        </mxCell>
        <mxCell id="uHSjfJx8BVrwy3Qoeiem-74" value="" style="endArrow=classic;html=1;rounded=0;entryX=0;entryY=0.5;entryDx=0;entryDy=0;exitX=1;exitY=0.5;exitDx=0;exitDy=0;jumpStyle=gap;edgeStyle=orthogonalEdgeStyle;dashed=1;" edge="1" parent="1" source="uHSjfJx8BVrwy3Qoeiem-4" target="uHSjfJx8BVrwy3Qoeiem-66">
          <mxGeometry width="50" height="50" relative="1" as="geometry">
            <mxPoint x="294" y="640" as="sourcePoint" />
            <mxPoint x="544" y="650" as="targetPoint" />
          </mxGeometry>
        </mxCell>
        <mxCell id="uHSjfJx8BVrwy3Qoeiem-66" value="select_homescreen_location" style="ellipse;whiteSpace=wrap;html=1;" vertex="1" parent="1">
          <mxGeometry x="380" y="570" width="120" height="80" as="geometry" />
        </mxCell>
      </root>
    </mxGraphModel>
  </diagram>
</mxfile>
